<?xml version="1.0" encoding="utf-8"?>
<!-- Generator: Adobe Illustrator 20.1.0, SVG Export Plug-In . SVG Version: 6.00 Build 0)  -->
<svg version="1.1" id="Capa_1" xmlns="http://www.w3.org/2000/svg" xmlns:xlink="http://www.w3.org/1999/xlink" x="0px" y="0px"
	 viewBox="0 0 199.6 27" style="enable-background:new 0 0 199.6 27;" xml:space="preserve">
<style type="text/css">
	.st0{fill:#324357;}
	.st1{fill:#57A7A2;}
</style>
<g>
	<g>
		<path class="st0" d="M0,26V11.3c0-0.2,0.1-0.4,0.2-0.5c0.1-0.1,0.3-0.2,0.6-0.2H5c3.4,0,5.1,1.5,5.1,4.5c0,1.3-0.3,2.2-0.8,3
			C8.7,18.8,8,19.2,7,19.5l3.1,5.9c0.1,0.1,0.1,0.2,0.1,0.3c0,0.3-0.2,0.6-0.5,0.8c-0.3,0.3-0.6,0.4-1,0.4c-0.4,0-0.7-0.2-0.9-0.7
			l-3.3-6.4H2.3V26c0,0.2-0.1,0.4-0.3,0.6c-0.2,0.1-0.5,0.2-0.8,0.2c-0.3,0-0.6-0.1-0.8-0.2C0.1,26.5,0,26.3,0,26z M2.3,17.9H5
			c1.8,0,2.8-0.9,2.8-2.7c0-1.8-0.9-2.7-2.8-2.7H2.3V17.9z"/>
		<path class="st0" d="M13.6,26V11.3c0-0.2,0.1-0.4,0.3-0.6c0.2-0.1,0.5-0.2,0.7-0.2h7.9c0.3,0,0.4,0.1,0.6,0.3
			c0.1,0.2,0.2,0.4,0.2,0.7c0,0.3-0.1,0.5-0.2,0.8c-0.1,0.2-0.3,0.3-0.6,0.3h-6.6v5.1h3.4c0.2,0,0.4,0.1,0.6,0.3
			c0.1,0.2,0.2,0.4,0.2,0.7c0,0.2-0.1,0.4-0.2,0.6c-0.1,0.2-0.3,0.3-0.6,0.3h-3.4v5.1h6.6c0.2,0,0.4,0.1,0.6,0.3
			c0.1,0.2,0.2,0.5,0.2,0.8c0,0.3-0.1,0.5-0.2,0.7c-0.1,0.2-0.3,0.3-0.6,0.3h-7.9c-0.3,0-0.5-0.1-0.7-0.2
			C13.7,26.5,13.6,26.3,13.6,26z"/>
		<path class="st0" d="M26,22v-6.5c0-1.7,0.5-3,1.4-3.8c0.9-0.8,2.1-1.2,3.6-1.2c1.5,0,2.7,0.4,3.7,1.1c0.9,0.8,1.4,1.7,1.4,2.9
			c0,0.5-0.1,0.8-0.3,1c-0.2,0.2-0.5,0.3-0.9,0.3c-0.8,0-1.2-0.3-1.2-0.8c-0.1-1.6-1-2.4-2.6-2.4c-1.8,0-2.7,1-2.7,2.9V22
			c0,1.9,0.9,2.9,2.7,2.9c0.5,0,1-0.1,1.3-0.2c0.4-0.2,0.6-0.4,0.8-0.7c0.2-0.3,0.3-0.6,0.3-0.8c0.1-0.2,0.1-0.5,0.1-0.8
			c0-0.5,0.4-0.8,1.2-0.8c0.4,0,0.7,0.1,0.9,0.3c0.2,0.2,0.3,0.5,0.3,1c0,1.2-0.5,2.2-1.4,3c-0.9,0.8-2.2,1.2-3.7,1.2
			c-1.5,0-2.7-0.4-3.6-1.2C26.5,25,26,23.7,26,22z"/>
		<path class="st0" d="M38.2,25.8c0-0.1,0-0.2,0-0.2l4.4-14.5c0.2-0.5,0.7-0.8,1.6-0.8c0.9,0,1.4,0.3,1.6,0.7l4.4,14.5
			c0,0.1,0,0.2,0,0.2c0,0.3-0.2,0.5-0.5,0.7c-0.3,0.2-0.7,0.3-1.1,0.3c-0.5,0-0.8-0.2-0.9-0.5l-0.9-3.2h-5.5l-0.9,3.2
			c-0.1,0.3-0.4,0.5-0.8,0.5c-0.4,0-0.7-0.1-1-0.3C38.3,26.3,38.2,26.1,38.2,25.8z M41.9,21.3h4.4l-2.2-7.7L41.9,21.3z"/>
		<path class="st0" d="M53,26V11.3c0-0.2,0.1-0.4,0.2-0.5c0.1-0.1,0.3-0.2,0.6-0.2H58c3.4,0,5.1,1.5,5.1,4.5c0,1.3-0.3,2.2-0.8,3
			c-0.6,0.7-1.3,1.2-2.3,1.4l3.1,5.9c0.1,0.1,0.1,0.2,0.1,0.3c0,0.3-0.2,0.6-0.5,0.8c-0.3,0.3-0.6,0.4-1,0.4c-0.4,0-0.7-0.2-0.9-0.7
			l-3.3-6.4h-2.3V26c0,0.2-0.1,0.4-0.3,0.6c-0.2,0.1-0.5,0.2-0.8,0.2c-0.3,0-0.6-0.1-0.8-0.2C53.1,26.5,53,26.3,53,26z M55.3,17.9
			H58c1.8,0,2.8-0.9,2.8-2.7c0-1.8-0.9-2.7-2.8-2.7h-2.7V17.9z"/>
		<path class="st0" d="M66.4,22v-6.5c0-1.7,0.5-3,1.4-3.8c0.9-0.8,2.1-1.2,3.6-1.2c1.5,0,2.7,0.4,3.7,1.1c0.9,0.8,1.4,1.8,1.4,3
			c0,0.4-0.1,0.7-0.3,0.9c-0.2,0.2-0.5,0.2-0.9,0.2c-0.8,0-1.2-0.3-1.2-0.8c-0.2-1.6-1-2.4-2.7-2.4c-1.8,0-2.6,1-2.6,2.9V22
			c0,1.9,0.9,2.9,2.6,2.9c0.8,0,1.5-0.2,2-0.7c0.5-0.5,0.7-1.2,0.7-2.2v-1.8h-2.3c-0.2,0-0.4-0.1-0.6-0.3c-0.1-0.2-0.2-0.4-0.2-0.7
			c0-0.2,0.1-0.4,0.2-0.6c0.1-0.2,0.3-0.3,0.6-0.3h3.8c0.2,0,0.4,0.1,0.6,0.2c0.1,0.2,0.2,0.3,0.2,0.6V22c0,1.7-0.5,3-1.4,3.8
			c-0.9,0.8-2.1,1.2-3.6,1.2c-1.5,0-2.7-0.4-3.6-1.2C66.9,25,66.4,23.7,66.4,22z"/>
		<path class="st0" d="M78.9,25.8c0-0.1,0-0.2,0-0.2l4.4-14.5c0.2-0.5,0.7-0.8,1.6-0.8c0.9,0,1.4,0.3,1.6,0.7L91,25.6
			c0,0.1,0,0.2,0,0.2c0,0.3-0.2,0.5-0.5,0.7c-0.3,0.2-0.7,0.3-1.1,0.3c-0.5,0-0.8-0.2-0.9-0.5l-0.9-3.2h-5.5l-0.9,3.2
			c-0.1,0.3-0.4,0.5-0.8,0.5c-0.4,0-0.7-0.1-1-0.3C79.1,26.3,78.9,26.1,78.9,25.8z M82.7,21.3h4.4l-2.2-7.7L82.7,21.3z"/>
		<path class="st0" d="M99.3,26V11.3c0-0.2,0.1-0.4,0.3-0.5c0.2-0.1,0.4-0.2,0.7-0.2h4.3c1.5,0,2.7,0.4,3.6,1.2
			c0.9,0.8,1.3,2,1.3,3.7v0.2c0,1.7-0.5,2.9-1.4,3.7c-0.9,0.8-2.1,1.2-3.6,1.2h-2.8V26c0,0.2-0.1,0.4-0.3,0.6
			c-0.2,0.1-0.5,0.2-0.8,0.2c-0.3,0-0.6-0.1-0.8-0.2C99.4,26.5,99.3,26.3,99.3,26z M101.7,18.7h2.8c0.8,0,1.5-0.2,2-0.7
			c0.5-0.5,0.7-1.2,0.7-2.2v-0.3c0-1-0.2-1.7-0.7-2.2c-0.5-0.5-1.1-0.7-2-0.7h-2.8V18.7z"/>
		<path class="st0" d="M112.6,26V11.3c0-0.2,0.1-0.4,0.2-0.5c0.1-0.1,0.3-0.2,0.6-0.2h4.2c3.4,0,5.1,1.5,5.1,4.5
			c0,1.3-0.3,2.2-0.8,3c-0.6,0.7-1.3,1.2-2.3,1.4l3.1,5.9c0.1,0.1,0.1,0.2,0.1,0.3c0,0.3-0.2,0.6-0.5,0.8c-0.3,0.3-0.6,0.4-1,0.4
			c-0.4,0-0.7-0.2-0.9-0.7l-3.3-6.4h-2.3V26c0,0.2-0.1,0.4-0.3,0.6c-0.2,0.1-0.5,0.2-0.8,0.2c-0.3,0-0.6-0.1-0.8-0.2
			C112.7,26.5,112.6,26.3,112.6,26z M114.9,17.9h2.7c1.8,0,2.8-0.9,2.8-2.7c0-1.8-0.9-2.7-2.8-2.7h-2.7V17.9z"/>
		<path class="st0" d="M126.2,26V11.3c0-0.2,0.1-0.4,0.3-0.6c0.2-0.1,0.5-0.2,0.7-0.2h7.9c0.3,0,0.4,0.1,0.6,0.3
			c0.1,0.2,0.2,0.4,0.2,0.7c0,0.3-0.1,0.5-0.2,0.8c-0.1,0.2-0.3,0.3-0.6,0.3h-6.6v5.1h3.4c0.2,0,0.4,0.1,0.6,0.3
			c0.1,0.2,0.2,0.4,0.2,0.7c0,0.2-0.1,0.4-0.2,0.6c-0.1,0.2-0.3,0.3-0.6,0.3h-3.4v5.1h6.6c0.2,0,0.4,0.1,0.6,0.3
			c0.1,0.2,0.2,0.5,0.2,0.8c0,0.3-0.1,0.5-0.2,0.7c-0.1,0.2-0.3,0.3-0.6,0.3h-7.9c-0.3,0-0.5-0.1-0.7-0.2
			C126.3,26.5,126.2,26.3,126.2,26z"/>
		<path class="st0" d="M138.9,26V11.3c0-0.2,0.1-0.4,0.3-0.5c0.2-0.1,0.4-0.2,0.7-0.2h4.3c1.5,0,2.7,0.4,3.6,1.2
			c0.9,0.8,1.3,2,1.3,3.7v0.2c0,1.7-0.5,2.9-1.4,3.7c-0.9,0.8-2.1,1.2-3.6,1.2h-2.8V26c0,0.2-0.1,0.4-0.3,0.6
			c-0.2,0.1-0.5,0.2-0.8,0.2c-0.3,0-0.6-0.1-0.8-0.2C139.1,26.5,138.9,26.3,138.9,26z M141.3,18.7h2.8c0.8,0,1.5-0.2,2-0.7
			c0.5-0.5,0.7-1.2,0.7-2.2v-0.3c0-1-0.2-1.7-0.7-2.2c-0.5-0.5-1.1-0.7-2-0.7h-2.8V18.7z"/>
		<path class="st0" d="M150.2,25.8c0-0.1,0-0.2,0-0.2l4.4-14.5c0.2-0.5,0.7-0.8,1.6-0.8c0.9,0,1.4,0.3,1.6,0.7l4.4,14.5
			c0,0.1,0,0.2,0,0.2c0,0.3-0.2,0.5-0.5,0.7c-0.3,0.2-0.7,0.3-1.1,0.3c-0.5,0-0.8-0.2-0.9-0.5l-0.9-3.2h-5.5l-0.9,3.2
			c-0.1,0.3-0.4,0.5-0.8,0.5c-0.4,0-0.7-0.1-1-0.3C150.4,26.3,150.2,26.1,150.2,25.8z M154,21.3h4.4l-2.2-7.7L154,21.3z"/>
		<path class="st0" d="M164.9,22v-6.5c0-1.7,0.5-3,1.4-3.8c0.9-0.8,2.1-1.2,3.6-1.2c1.5,0,2.7,0.4,3.7,1.1c0.9,0.8,1.4,1.8,1.4,3
			c0,0.4-0.1,0.7-0.3,0.9c-0.2,0.2-0.5,0.2-0.9,0.2c-0.8,0-1.2-0.3-1.2-0.8c-0.2-1.6-1-2.4-2.7-2.4c-1.8,0-2.6,1-2.6,2.9V22
			c0,1.9,0.9,2.9,2.6,2.9c0.8,0,1.5-0.2,2-0.7c0.5-0.5,0.7-1.2,0.7-2.2v-1.8h-2.3c-0.2,0-0.4-0.1-0.6-0.3c-0.1-0.2-0.2-0.4-0.2-0.7
			c0-0.2,0.1-0.4,0.2-0.6c0.1-0.2,0.3-0.3,0.6-0.3h3.8c0.2,0,0.4,0.1,0.6,0.2c0.1,0.2,0.2,0.3,0.2,0.6V22c0,1.7-0.5,3-1.4,3.8
			c-0.9,0.8-2.1,1.2-3.6,1.2c-1.5,0-2.7-0.4-3.6-1.2C165.3,25,164.9,23.7,164.9,22z"/>
		<path class="st0" d="M178.4,22v-6.5c0-1.7,0.5-3,1.4-3.8c0.9-0.8,2.1-1.2,3.6-1.2c1.5,0,2.7,0.4,3.6,1.2c0.9,0.8,1.4,2.1,1.4,3.8
			V22c0,1.7-0.5,3-1.4,3.8c-0.9,0.8-2.1,1.2-3.6,1.2c-1.5,0-2.7-0.4-3.6-1.2C178.8,25,178.4,23.7,178.4,22z M180.7,22
			c0,1.9,0.9,2.9,2.6,2.9c0.8,0,1.5-0.2,2-0.7c0.5-0.5,0.7-1.2,0.7-2.2v-6.5c0-1-0.2-1.7-0.7-2.2c-0.5-0.5-1.1-0.7-2-0.7
			c-1.8,0-2.6,1-2.6,2.9V22z"/>
	</g>
	<g>
		<g>
			<line class="st1" x1="193.4" y1="1.2" x2="193.4" y2="11.3"/>
			<path class="st1" d="M193.4,12.5c-0.7,0-1.2-0.5-1.2-1.2v-10c0-0.7,0.5-1.2,1.2-1.2c0.7,0,1.2,0.5,1.2,1.2v10
				C194.6,11.9,194.1,12.5,193.4,12.5z"/>
		</g>
		<g>
			<line class="st1" x1="188.4" y1="6.2" x2="198.4" y2="6.2"/>
			<path class="st1" d="M198.4,7.4h-10.1c-0.7,0-1.2-0.5-1.2-1.2c0-0.7,0.5-1.2,1.2-1.2h10.1c0.7,0,1.2,0.5,1.2,1.2
				C199.6,6.9,199.1,7.4,198.4,7.4z"/>
		</g>
	</g>
</g>
</svg>
