<?xml version="1.0" encoding="utf-8"?>
<!-- Generator: Adobe Illustrator 20.1.0, SVG Export Plug-In . SVG Version: 6.00 Build 0)  -->
<svg version="1.1" id="Capa_1" xmlns="http://www.w3.org/2000/svg" xmlns:xlink="http://www.w3.org/1999/xlink" x="0px" y="0px"
	 viewBox="0 0 510.5 68.9" style="enable-background:new 0 0 510.5 68.9;" xml:space="preserve">
<style type="text/css">
	.st0{fill:#FFFFFF;}
	.st1{fill:#57A7A2;}
</style>
<g>
	<g>
		<path class="st0" d="M0,66.6V28.8c0-0.5,0.2-1,0.6-1.4c0.4-0.4,0.9-0.6,1.4-0.6h10.8c8.7,0,13.1,3.9,13.1,11.6
			c0,3.2-0.7,5.7-2.2,7.6c-1.4,1.8-3.4,3.1-5.9,3.7l8,15c0.2,0.3,0.2,0.6,0.2,0.9c0,0.8-0.4,1.5-1.2,2.1c-0.8,0.6-1.6,1-2.5,1
			c-1,0-1.8-0.6-2.4-1.8l-8.3-16.4H6v16c0,0.6-0.3,1.1-0.9,1.5c-0.6,0.4-1.3,0.5-2.1,0.5c-0.8,0-1.5-0.2-2.1-0.5
			C0.3,67.7,0,67.2,0,66.6z M6,45.8h6.8c4.7,0,7.1-2.3,7.1-6.8c0-4.5-2.4-6.8-7.1-6.8H6V45.8z"/>
		<path class="st0" d="M34.7,66.6V28.9c0-0.6,0.3-1.1,0.8-1.5c0.5-0.4,1.2-0.5,1.9-0.5h20.3c0.6,0,1.1,0.3,1.5,0.8
			c0.3,0.5,0.5,1.1,0.5,1.8c0,0.8-0.2,1.4-0.5,1.9c-0.4,0.5-0.8,0.8-1.5,0.8H40.8v13.1h8.8c0.6,0,1.1,0.2,1.5,0.7
			c0.4,0.5,0.5,1.1,0.5,1.7c0,0.6-0.2,1.1-0.5,1.6c-0.3,0.5-0.8,0.7-1.5,0.7h-8.8v13.1h16.9c0.6,0,1.1,0.3,1.5,0.8
			c0.4,0.5,0.5,1.2,0.5,1.9c0,0.7-0.2,1.3-0.5,1.8c-0.3,0.5-0.8,0.8-1.5,0.8H37.4c-0.7,0-1.4-0.2-1.9-0.5
			C35,67.7,34.7,67.2,34.7,66.6z"/>
		<path class="st0" d="M66.5,56.2V39.6c0-4.4,1.2-7.6,3.5-9.6c2.3-2.1,5.4-3.1,9.2-3.1c3.9,0,7,1,9.4,2.9c2.4,1.9,3.6,4.4,3.6,7.4
			c0,1.2-0.2,2-0.7,2.5c-0.5,0.4-1.2,0.7-2.3,0.7c-2,0-3-0.7-3-2c-0.2-4.1-2.5-6.1-6.7-6.1c-4.6,0-6.8,2.5-6.8,7.4v16.6
			c0,4.9,2.3,7.4,7,7.4c1.4,0,2.5-0.2,3.4-0.6c0.9-0.4,1.6-1,2-1.7c0.4-0.8,0.7-1.4,0.8-2c0.2-0.6,0.3-1.3,0.3-2.1
			c0.1-1.3,1.1-2,3-2c1.1,0,1.9,0.2,2.4,0.7c0.5,0.4,0.7,1.3,0.7,2.5c0,3.2-1.2,5.7-3.6,7.7c-2.4,2-5.5,3-9.4,3
			c-3.8,0-6.8-1-9.1-3.1C67.7,63.8,66.5,60.6,66.5,56.2z"/>
		<path class="st0" d="M97.7,66.1c0-0.2,0-0.4,0.1-0.5l11.3-37c0.5-1.4,1.8-2,4.1-2c2.3,0,3.6,0.6,4.1,1.9l11.3,37
			c0.1,0.2,0.1,0.4,0.1,0.5c0,0.7-0.4,1.3-1.3,1.9c-0.9,0.5-1.8,0.8-2.8,0.8c-1.2,0-1.9-0.4-2.2-1.2l-2.4-8.2h-14l-2.3,8.1
			c-0.3,0.8-1,1.3-2.1,1.3c-0.9,0-1.8-0.2-2.6-0.7C98.1,67.4,97.7,66.8,97.7,66.1z M107.2,54.4h11.3l-5.7-19.6L107.2,54.4z"/>
		<path class="st0" d="M135.5,66.6V28.8c0-0.5,0.2-1,0.6-1.4c0.4-0.4,0.9-0.6,1.4-0.6h10.8c8.7,0,13.1,3.9,13.1,11.6
			c0,3.2-0.7,5.7-2.2,7.6c-1.4,1.8-3.4,3.1-5.9,3.7l8,15c0.2,0.3,0.2,0.6,0.2,0.9c0,0.8-0.4,1.5-1.2,2.1c-0.8,0.6-1.6,1-2.5,1
			c-1,0-1.8-0.6-2.4-1.8l-8.3-16.4h-5.8v16c0,0.6-0.3,1.1-0.9,1.5c-0.6,0.4-1.3,0.5-2.1,0.5c-0.8,0-1.5-0.2-2.1-0.5
			C135.8,67.7,135.5,67.2,135.5,66.6z M141.5,45.8h6.8c4.7,0,7.1-2.3,7.1-6.8c0-4.5-2.4-6.8-7.1-6.8h-6.8V45.8z"/>
		<path class="st0" d="M169.8,56.2V39.6c0-4.4,1.2-7.6,3.5-9.6c2.3-2.1,5.4-3.1,9.1-3.1c3.8,0,7,1,9.4,2.9c2.4,1.9,3.6,4.5,3.6,7.7
			c0,1.1-0.2,1.9-0.7,2.3c-0.5,0.4-1.2,0.6-2.3,0.6c-2,0-3-0.7-3-2c-0.4-4.1-2.7-6.1-6.8-6.1c-4.5,0-6.7,2.5-6.7,7.4v16.6
			c0,4.9,2.2,7.4,6.7,7.4c2.2,0,3.8-0.6,5-1.8c1.2-1.2,1.8-3.1,1.8-5.6v-4.7h-5.8c-0.6,0-1.1-0.2-1.4-0.7c-0.3-0.5-0.5-1-0.5-1.7
			c0-0.6,0.2-1.1,0.5-1.6c0.3-0.5,0.8-0.7,1.4-0.7h9.8c0.6,0,1.1,0.2,1.5,0.6c0.4,0.4,0.5,0.9,0.5,1.5v7.5c0,4.4-1.2,7.6-3.5,9.6
			c-2.3,2.1-5.4,3.1-9.3,3.1c-3.9,0-7-1-9.3-3.1C171,63.8,169.8,60.6,169.8,56.2z"/>
		<path class="st0" d="M201.9,66.1c0-0.2,0-0.4,0.1-0.5l11.3-37c0.5-1.4,1.8-2,4.1-2c2.3,0,3.6,0.6,4.1,1.9l11.3,37
			c0.1,0.2,0.1,0.4,0.1,0.5c0,0.7-0.4,1.3-1.3,1.9c-0.9,0.5-1.8,0.8-2.8,0.8c-1.2,0-1.9-0.4-2.2-1.2l-2.4-8.2h-14l-2.3,8.1
			c-0.3,0.8-1,1.3-2.1,1.3c-0.9,0-1.8-0.2-2.6-0.7C202.3,67.4,201.9,66.8,201.9,66.1z M211.4,54.4h11.3L217,34.8L211.4,54.4z"/>
		<path class="st0" d="M254,66.6V28.8c0-0.5,0.2-1,0.7-1.4c0.4-0.4,1-0.6,1.7-0.6h11.1c3.8,0,6.8,1,9.1,3c2.3,2,3.4,5.2,3.4,9.5v0.5
			c0,4.3-1.2,7.5-3.5,9.6c-2.3,2-5.4,3.1-9.3,3.1H260v14.1c0,0.6-0.3,1.1-0.9,1.5c-0.6,0.4-1.3,0.5-2.1,0.5c-0.8,0-1.5-0.2-2.1-0.5
			C254.3,67.7,254,67.2,254,66.6z M260,47.7h7.1c2.2,0,3.8-0.6,5-1.9c1.2-1.2,1.8-3.1,1.8-5.6v-0.7c0-2.5-0.6-4.3-1.8-5.5
			c-1.2-1.2-2.9-1.8-5-1.8H260V47.7z"/>
		<path class="st0" d="M287.9,66.6V28.8c0-0.5,0.2-1,0.6-1.4c0.4-0.4,0.9-0.6,1.4-0.6h10.8c8.7,0,13.1,3.9,13.1,11.6
			c0,3.2-0.7,5.7-2.2,7.6c-1.4,1.8-3.4,3.1-5.9,3.7l8,15c0.2,0.3,0.2,0.6,0.2,0.9c0,0.8-0.4,1.5-1.2,2.1c-0.8,0.6-1.6,1-2.5,1
			c-1,0-1.8-0.6-2.4-1.8l-8.3-16.4h-5.8v16c0,0.6-0.3,1.1-0.9,1.5c-0.6,0.4-1.3,0.5-2.1,0.5c-0.8,0-1.5-0.2-2.1-0.5
			C288.2,67.7,287.9,67.2,287.9,66.6z M293.9,45.8h6.8c4.7,0,7.1-2.3,7.1-6.8c0-4.5-2.4-6.8-7.1-6.8h-6.8V45.8z"/>
		<path class="st0" d="M322.6,66.6V28.9c0-0.6,0.3-1.1,0.8-1.5c0.5-0.4,1.2-0.5,1.9-0.5h20.3c0.6,0,1.1,0.3,1.5,0.8
			c0.3,0.5,0.5,1.1,0.5,1.8c0,0.8-0.2,1.4-0.5,1.9c-0.4,0.5-0.8,0.8-1.5,0.8h-16.9v13.1h8.8c0.6,0,1.1,0.2,1.5,0.7
			c0.4,0.5,0.5,1.1,0.5,1.7c0,0.6-0.2,1.1-0.5,1.6c-0.3,0.5-0.8,0.7-1.5,0.7h-8.8v13.1h16.9c0.6,0,1.1,0.3,1.5,0.8
			c0.4,0.5,0.5,1.2,0.5,1.9c0,0.7-0.2,1.3-0.5,1.8c-0.3,0.5-0.8,0.8-1.5,0.8h-20.3c-0.7,0-1.3-0.2-1.9-0.5
			C322.9,67.7,322.6,67.2,322.6,66.6z"/>
		<path class="st0" d="M355.3,66.6V28.8c0-0.5,0.2-1,0.7-1.4c0.4-0.4,1-0.6,1.7-0.6h11.1c3.8,0,6.8,1,9.1,3c2.3,2,3.4,5.2,3.4,9.5
			v0.5c0,4.3-1.2,7.5-3.5,9.6c-2.3,2-5.4,3.1-9.3,3.1h-7.1v14.1c0,0.6-0.3,1.1-0.9,1.5c-0.6,0.4-1.3,0.5-2.1,0.5
			c-0.8,0-1.5-0.2-2.1-0.5C355.6,67.7,355.3,67.2,355.3,66.6z M361.4,47.7h7.1c2.2,0,3.8-0.6,5-1.9c1.2-1.2,1.8-3.1,1.8-5.6v-0.7
			c0-2.5-0.6-4.3-1.8-5.5c-1.2-1.2-2.9-1.8-5-1.8h-7.1V47.7z"/>
		<path class="st0" d="M384.1,66.1c0-0.2,0-0.4,0.1-0.5l11.3-37c0.5-1.4,1.8-2,4.1-2c2.3,0,3.6,0.6,4.1,1.9l11.3,37
			c0.1,0.2,0.1,0.4,0.1,0.5c0,0.7-0.4,1.3-1.3,1.9c-0.9,0.5-1.8,0.8-2.8,0.8c-1.2,0-1.9-0.4-2.2-1.2l-2.4-8.2h-14l-2.3,8.1
			c-0.3,0.8-1,1.3-2.1,1.3c-0.9,0-1.8-0.2-2.6-0.7C384.5,67.4,384.1,66.8,384.1,66.1z M393.7,54.4H405l-5.7-19.6L393.7,54.4z"/>
		<path class="st0" d="M421.6,56.2V39.6c0-4.4,1.2-7.6,3.5-9.6c2.3-2.1,5.4-3.1,9.1-3.1c3.8,0,7,1,9.4,2.9c2.4,1.9,3.6,4.5,3.6,7.7
			c0,1.1-0.2,1.9-0.7,2.3c-0.5,0.4-1.2,0.6-2.3,0.6c-2,0-3-0.7-3-2c-0.4-4.1-2.7-6.1-6.8-6.1c-4.5,0-6.7,2.5-6.7,7.4v16.6
			c0,4.9,2.2,7.4,6.7,7.4c2.2,0,3.8-0.6,5-1.8c1.2-1.2,1.8-3.1,1.8-5.6v-4.7h-5.8c-0.6,0-1.1-0.2-1.4-0.7c-0.3-0.5-0.5-1-0.5-1.7
			c0-0.6,0.2-1.1,0.5-1.6c0.3-0.5,0.8-0.7,1.4-0.7h9.8c0.6,0,1.1,0.2,1.5,0.6c0.4,0.4,0.5,0.9,0.5,1.5v7.5c0,4.4-1.2,7.6-3.5,9.6
			c-2.3,2.1-5.4,3.1-9.3,3.1c-3.9,0-7-1-9.3-3.1C422.8,63.8,421.6,60.6,421.6,56.2z"/>
		<path class="st0" d="M456.2,56.2V39.6c0-4.4,1.2-7.6,3.5-9.6c2.3-2.1,5.4-3.1,9.3-3.1s7,1,9.3,3.1c2.3,2.1,3.5,5.3,3.5,9.6v16.6
			c0,4.4-1.2,7.6-3.5,9.6c-2.3,2.1-5.4,3.1-9.3,3.1s-7-1-9.3-3.1C457.3,63.8,456.2,60.6,456.2,56.2z M462.2,56.2
			c0,4.9,2.2,7.4,6.7,7.4c2.2,0,3.8-0.6,5-1.8c1.2-1.2,1.8-3.1,1.8-5.5V39.6c0-2.5-0.6-4.3-1.8-5.5c-1.2-1.2-2.9-1.8-5-1.8
			c-4.5,0-6.7,2.5-6.7,7.4V56.2z"/>
	</g>
	<g>
		<g>
			<line class="st1" x1="494.6" y1="3.1" x2="494.6" y2="28.8"/>
			<path class="st1" d="M494.6,31.8c-1.7,0-3.1-1.4-3.1-3.1V3.1c0-1.7,1.4-3.1,3.1-3.1c1.7,0,3.1,1.4,3.1,3.1v25.7
				C497.6,30.5,496.3,31.8,494.6,31.8z"/>
		</g>
		<g>
			<line class="st1" x1="481.7" y1="15.9" x2="507.4" y2="15.9"/>
			<path class="st1" d="M507.4,19h-25.7c-1.7,0-3.1-1.4-3.1-3.1s1.4-3.1,3.1-3.1h25.7c1.7,0,3.1,1.4,3.1,3.1S509.1,19,507.4,19z"/>
		</g>
	</g>
</g>
</svg>
